<?xml version="1.0" encoding="UTF-8" standalone="no"?>
<!-- Created with Inkscape (http://www.inkscape.org/) -->

<svg
   xmlns:dc="http://purl.org/dc/elements/1.1/"
   xmlns:cc="http://creativecommons.org/ns#"
   xmlns:rdf="http://www.w3.org/1999/02/22-rdf-syntax-ns#"
   xmlns:svg="http://www.w3.org/2000/svg"
   xmlns="http://www.w3.org/2000/svg"
   xmlns:sodipodi="http://sodipodi.sourceforge.net/DTD/sodipodi-0.dtd"
   xmlns:inkscape="http://www.inkscape.org/namespaces/inkscape"
   width="768.9671mm"
   height="469.14664mm"
   viewBox="0 0 768.9671 469.14664"
   version="1.1"
   id="svg8399"
   inkscape:version="0.92.1 r15371"
   sodipodi:docname="computer_landscape_laptop.svg">
  <defs
     id="defs8393" />
  <sodipodi:namedview
     id="base"
     pagecolor="#ffffff"
     bordercolor="#666666"
     borderopacity="1.0"
     inkscape:pageopacity="0.0"
     inkscape:pageshadow="2"
     inkscape:zoom="0.35"
     inkscape:cx="1470.3091"
     inkscape:cy="1198.0049"
     inkscape:document-units="mm"
     inkscape:current-layer="layer1"
     showgrid="false"
     fit-margin-top="0"
     fit-margin-left="0"
     fit-margin-right="0"
     fit-margin-bottom="0"
     inkscape:window-width="1920"
     inkscape:window-height="1017"
     inkscape:window-x="1912"
     inkscape:window-y="-8"
     inkscape:window-maximized="1" />
  <metadata
     id="metadata8396">
    <rdf:RDF>
      <cc:Work
         rdf:about="">
        <dc:format>image/svg+xml</dc:format>
        <dc:type
           rdf:resource="http://purl.org/dc/dcmitype/StillImage" />
        <dc:title></dc:title>
      </cc:Work>
    </rdf:RDF>
  </metadata>
  <g
     inkscape:label="Layer 1"
     inkscape:groupmode="layer"
     id="layer1"
     transform="translate(283.18594,3.3411782)">
    <g
       transform="matrix(3.9998393,0,0,3.9998393,-1344.4467,-503.20876)"
       style="display:inline"
       id="g12368"
       inkscape:export-filename="C:\Users\tom\Pictures\computer_landscape_elements\computer_landscape_laptop.png"
       inkscape:export-xdpi="90"
       inkscape:export-ydpi="90">
      <path
         style="opacity:1;fill:#fffefe;fill-opacity:1;stroke:none;stroke-width:5.84774542;stroke-miterlimit:4;stroke-dasharray:none;stroke-opacity:1"
         d="m 286.07659,212.92045 h 150.12998 l 20.75074,16.12344 H 265.32585 Z"
         id="path7009"
         inkscape:connector-curvature="0"
         sodipodi:nodetypes="ccccc" />
      <path
         style="opacity:1;fill:#305f82;fill-opacity:1;stroke:none;stroke-width:8.70306492;stroke-miterlimit:4;stroke-dasharray:none;stroke-opacity:1"
         d="m 457.57535,229.04073 c 0,7.32527 -5.89726,13.22256 -13.22258,13.22256 H 279.0467 c -7.32532,0 -13.22261,-5.89729 -13.22261,-13.22256 0,0 191.48508,-0.26966 191.75126,0 z"
         id="path7011"
         inkscape:connector-curvature="0"
         sodipodi:nodetypes="csscc" />
      <rect
         ry="4.8493242"
         y="124.97192"
         x="287.56036"
         height="82.834"
         width="145.30078"
         id="rect7013"
         style="opacity:1;fill:#305f82;fill-opacity:1;stroke:none;stroke-width:7.07761669;stroke-miterlimit:4;stroke-dasharray:none;stroke-opacity:1" />
      <path
         sodipodi:nodetypes="ccccc"
         inkscape:connector-curvature="0"
         id="path7019"
         d="m 286.07659,212.92045 h 150.12998 l 20.75074,16.12344 H 265.32585 Z"
         style="opacity:1;fill:#fffefe;fill-opacity:1;stroke:none;stroke-width:5.84774542;stroke-miterlimit:4;stroke-dasharray:none;stroke-opacity:1" />
      <path
         sodipodi:nodetypes="csscc"
         inkscape:connector-curvature="0"
         id="path7021"
         d="m 457.57535,229.04073 c 0,7.32527 -5.89726,13.22256 -13.22258,13.22256 H 279.0467 c -7.32532,0 -13.22261,-5.89729 -13.22261,-13.22256 0,0 191.48508,-0.26966 191.75126,0 z"
         style="opacity:1;fill:#305f82;fill-opacity:1;stroke:none;stroke-width:8.70306492;stroke-miterlimit:4;stroke-dasharray:none;stroke-opacity:1" />
      <rect
         style="opacity:1;fill:#305f82;fill-opacity:1;stroke:none;stroke-width:7.07761669;stroke-miterlimit:4;stroke-dasharray:none;stroke-opacity:1"
         id="rect7023"
         width="145.30078"
         height="82.834"
         x="287.56036"
         y="124.97192"
         ry="4.8493242" />
      <rect
         style="opacity:1;fill:#ffffff;fill-opacity:1;stroke:none;stroke-width:17.41028786;stroke-miterlimit:4;stroke-dasharray:none;stroke-opacity:1"
         id="rect7164"
         width="128.4471"
         height="67.421387"
         x="295.80011"
         y="132.64507"
         ry="0" />
      <g
         style="display:inline"
         id="g9826"
         transform="matrix(0.24338506,0,0,0.24338506,295.51827,132.26088)">
        <rect
           ry="0"
           y="148.89101"
           x="0.99515909"
           height="129.34837"
           width="528.04877"
           id="rect9708"
           style="opacity:1;fill:#9dbec9;fill-opacity:1;stroke:none;stroke-width:10.38006878;stroke-miterlimit:4;stroke-dasharray:none;stroke-opacity:1" />
        <g
           transform="matrix(1.9424786,0,0,1.9424786,-218.3715,-81.656847)"
           id="g9722"
           style="display:inline">
          <g
             transform="matrix(0.77851377,0,0,0.77851377,58.969209,28.059868)"
             id="g9720">
            <ellipse
               ry="21.929501"
               rx="22.409706"
               cy="122.36913"
               cx="250.3726"
               id="ellipse9710"
               style="opacity:1;fill:#305f82;fill-opacity:1;stroke:none;stroke-width:5.18624687;stroke-miterlimit:4;stroke-dasharray:none;stroke-opacity:1" />
            <path
               sodipodi:nodetypes="cssssssssssssssssscsc"
               inkscape:connector-curvature="0"
               id="path9712"
               d="m 263.67609,103.77904 c -2.23217,-0.22524 -2.75447,3.22352 -4.98523,2.98468 -1.74028,-0.18632 -1.40517,-1.30851 -3.15524,-1.33204 -2.90264,-0.0391 -4.72098,1.2747 -5.02991,2.5339 -0.35324,1.43981 1.21622,1.67557 2.67235,1.39715 1.14738,-0.21938 1.18145,-0.73339 3.04398,-0.35804 1.07703,0.21705 -4.10883,4.33445 -4.58249,5.32577 -0.5704,1.1938 0.93738,1.37302 0.43429,3.01146 -0.49197,1.60222 -2.82518,1.97805 -2.035,2.93809 0.58277,0.70803 4.23315,0.59838 4.5932,-0.14914 0.39564,-0.82144 0.5511,-3.1128 0.76513,-3.99907 0.27081,-1.12136 2.14896,-0.86967 3.42922,-0.90067 1.85621,-0.0449 4.78191,-1.53853 4.24049,0.55331 -1.36368,5.26874 -10.49092,3.53944 -12.24931,8.68992 -0.75615,2.21486 -0.75132,1.41962 1.4433,2.23268 3.53647,1.3102 1.13372,-0.16061 4.63641,1.23734 2.44786,0.97695 1.40679,12.49033 4.03162,12.25221 3.89761,-0.35356 4.24838,-12.76461 6.84243,-15.69503 2.09132,-2.36249 5.01097,-5.49386 5.01097,-5.49386 0,0 -0.41609,-6.79489 -1.97795,-9.11975 -1.78526,-2.65739 -4.49404,-4.82327 -7.12826,-6.10891 z"
               style="opacity:1;fill:#ffffff;fill-opacity:0.98994978;stroke:none;stroke-width:0.3457498px;stroke-linecap:butt;stroke-linejoin:miter;stroke-opacity:1" />
            <path
               sodipodi:nodetypes="cscsc"
               inkscape:connector-curvature="0"
               id="path9714"
               d="m 268.83336,108.25315 c 0,0 -3.22763,16.77004 -8.1557,21.65684 -5.70684,5.65911 -22.9136,10.63846 -22.9136,10.63846 0,0 17.37312,10.69825 30.68095,-4.93929 9.57935,-11.25632 0.38835,-27.35601 0.38835,-27.35601 z"
               style="opacity:1;fill:#000000;fill-opacity:0.07035175;stroke:none;stroke-width:0.34956074px;stroke-linecap:butt;stroke-linejoin:miter;stroke-opacity:1" />
            <path
               sodipodi:nodetypes="sssss"
               inkscape:connector-curvature="0"
               id="path9716"
               d="m 248.05158,109.27649 c -0.90686,0.71494 -1.65614,3.8172 -1.00445,4.14345 0.81479,0.40787 3.73442,0.19163 3.88879,-0.71898 0.099,-0.58371 -1.35903,-2.36584 -2.56385,-3.2614 -0.0965,-0.0717 -0.22607,-0.23752 -0.32049,-0.16307 z"
               style="opacity:1;fill:#ffffff;fill-opacity:0.98994978;stroke:none;stroke-width:0.14871742px;stroke-linecap:butt;stroke-linejoin:miter;stroke-opacity:1" />
            <path
               sodipodi:nodetypes="csssccccc"
               inkscape:connector-curvature="0"
               id="path9718"
               d="m 241.78721,118.66654 c -0.16113,3.94461 -8.90996,3.50994 -7.82057,7.30456 1.01231,3.52614 12.0254,-0.30122 13.77179,2.92501 0.92664,1.71185 -1.64712,2.83158 -3.05574,5.76684 -1.40862,2.93525 -1.65211,7.68601 -3.46888,8.38487 -1.67435,-0.81041 -2.98333,-9.59629 -5.38019,-11.39023 -4.81477,-3.06777 -7.7169,-6.7483 -7.79606,-11.13948 -0.0327,-2.97499 0.32117,-3.16156 1.2046,-5.37159 3.96248,-2.74673 12.56966,1.0289 12.54505,3.52002 z"
               style="opacity:1;fill:#ffffff;fill-opacity:1;stroke:none;stroke-width:0.26458332px;stroke-linecap:butt;stroke-linejoin:miter;stroke-opacity:1" />
          </g>
        </g>
        <rect
           ry="1.8125571"
           y="120.87516"
           x="366.94601"
           height="30.961292"
           width="52.412285"
           id="rect9724"
           style="opacity:1;fill:#305f82;fill-opacity:1;stroke:none;stroke-width:2.59881139;stroke-miterlimit:4;stroke-dasharray:none;stroke-opacity:1" />
        <rect
           ry="0"
           y="149.66177"
           x="366.96231"
           height="7.7234235"
           width="52.454632"
           id="rect9726"
           style="opacity:1;fill:#fffcfb;fill-opacity:1;stroke:none;stroke-width:2.90223885;stroke-miterlimit:4;stroke-dasharray:none;stroke-opacity:1" />
        <rect
           ry="2.4724176"
           y="154.73918"
           x="366.93359"
           height="4.9448352"
           width="52.454632"
           id="rect9728"
           style="opacity:1;fill:#fffcfb;fill-opacity:1;stroke:none;stroke-width:3.20186186;stroke-miterlimit:4;stroke-dasharray:none;stroke-opacity:1" />
        <rect
           y="159.54459"
           x="387.3764"
           height="5.9154696"
           width="11.785563"
           id="rect9730"
           style="opacity:1;fill:#fffcfb;fill-opacity:1;stroke:none;stroke-width:2.90223885;stroke-miterlimit:4;stroke-dasharray:none;stroke-opacity:1" />
        <rect
           y="165.46005"
           x="384.07648"
           height="2.8073413"
           width="18.291195"
           id="rect9732"
           style="opacity:1;fill:#fffcfb;fill-opacity:1;stroke:none;stroke-width:2.90223885;stroke-miterlimit:4;stroke-dasharray:none;stroke-opacity:1" />
        <rect
           style="opacity:1;fill:#305f82;fill-opacity:0.38693471;stroke:none;stroke-width:1.85102677;stroke-miterlimit:4;stroke-dasharray:none;stroke-opacity:1"
           id="rect9734"
           width="11.785563"
           height="2.4062927"
           x="387.3764"
           y="159.64487" />
        <ellipse
           cy="154.13045"
           cx="392.84494"
           id="ellipse9736"
           style="opacity:1;fill:#305f82;fill-opacity:1;stroke:none;stroke-width:1.49801636;stroke-miterlimit:4;stroke-dasharray:none;stroke-opacity:1"
           rx="1.1314142"
           ry="1.2031463" />
        <path
           sodipodi:nodetypes="cccccc"
           inkscape:connector-curvature="0"
           id="path9738"
           d="m 392.83362,120.67156 20.97766,29.23074 5.60611,-1e-5 -0.18084,-26.53843 -2.89347,-2.6923 z"
           style="opacity:1;fill:#000000;fill-opacity:0.03517588;stroke:none;stroke-width:0.43264908px;stroke-linecap:butt;stroke-linejoin:miter;stroke-opacity:1" />
        <rect
           ry="4.2207694"
           y="102.24498"
           x="426.84018"
           height="65.909027"
           width="23.599888"
           id="rect9740"
           style="opacity:1;fill:#305f82;fill-opacity:1;stroke:none;stroke-width:7.49758625;stroke-miterlimit:4;stroke-dasharray:none;stroke-opacity:1" />
        <rect
           ry="0"
           y="101.9995"
           x="430.86761"
           height="6.5748916"
           width="15.898871"
           id="rect9742"
           style="opacity:1;fill:#305f82;fill-opacity:1;stroke:none;stroke-width:6.07191038;stroke-miterlimit:4;stroke-dasharray:none;stroke-opacity:1" />
        <ellipse
           cy="152.3679"
           cx="439.0379"
           id="ellipse9744"
           style="opacity:1;fill:#305f82;fill-opacity:1;stroke:none;stroke-width:2.13637257;stroke-miterlimit:4;stroke-dasharray:none;stroke-opacity:1"
           rx="5.8516665"
           ry="6.2226653" />
        <rect
           y="152.9549"
           x="433.18613"
           height="15.263142"
           width="11.703335"
           id="rect9746"
           style="opacity:1;fill:#305f82;fill-opacity:1;stroke:none;stroke-width:4.57105923;stroke-miterlimit:4;stroke-dasharray:none;stroke-opacity:1" />
        <ellipse
           cy="152.48528"
           cx="438.92746"
           id="ellipse9748"
           style="opacity:1;fill:#ffffff;fill-opacity:1;stroke:none;stroke-width:5.19178915;stroke-miterlimit:4;stroke-dasharray:none;stroke-opacity:1"
           rx="2.2081764"
           ry="2.3481758" />
        <rect
           ry="0"
           y="109.51367"
           x="430.7572"
           height="6.5748916"
           width="15.898871"
           id="rect9750"
           style="opacity:1;fill:#305f82;fill-opacity:1;stroke:none;stroke-width:6.07191038;stroke-miterlimit:4;stroke-dasharray:none;stroke-opacity:1" />
        <rect
           ry="0"
           y="117.0278"
           x="430.7572"
           height="6.5748916"
           width="15.898871"
           id="rect9752"
           style="opacity:1;fill:#305f82;fill-opacity:1;stroke:none;stroke-width:6.07191038;stroke-miterlimit:4;stroke-dasharray:none;stroke-opacity:1" />
        <rect
           ry="0"
           y="124.30716"
           x="430.7572"
           height="6.5748916"
           width="15.898871"
           id="rect9754"
           style="opacity:1;fill:#305f82;fill-opacity:1;stroke:none;stroke-width:6.07191038;stroke-miterlimit:4;stroke-dasharray:none;stroke-opacity:1" />
        <rect
           style="opacity:1;fill:#305f82;fill-opacity:1;stroke:none;stroke-width:2.59881139;stroke-miterlimit:4;stroke-dasharray:none;stroke-opacity:1"
           id="rect9756"
           width="52.412285"
           height="30.961292"
           x="366.94601"
           y="120.87516"
           ry="1.8125571" />
        <rect
           style="opacity:1;fill:#fffcfb;fill-opacity:1;stroke:none;stroke-width:2.90223885;stroke-miterlimit:4;stroke-dasharray:none;stroke-opacity:1"
           id="rect9758"
           width="52.454632"
           height="7.7234235"
           x="366.96231"
           y="149.66177"
           ry="0" />
        <rect
           style="opacity:1;fill:#fffcfb;fill-opacity:1;stroke:none;stroke-width:3.20186186;stroke-miterlimit:4;stroke-dasharray:none;stroke-opacity:1"
           id="rect9760"
           width="52.454632"
           height="4.9448352"
           x="366.93359"
           y="154.73918"
           ry="2.4724176" />
        <rect
           style="opacity:1;fill:#fffcfb;fill-opacity:1;stroke:none;stroke-width:2.90223885;stroke-miterlimit:4;stroke-dasharray:none;stroke-opacity:1"
           id="rect9762"
           width="11.785563"
           height="5.9154696"
           x="387.3764"
           y="159.54459" />
        <rect
           style="opacity:1;fill:#fffcfb;fill-opacity:1;stroke:none;stroke-width:2.90223885;stroke-miterlimit:4;stroke-dasharray:none;stroke-opacity:1"
           id="rect9764"
           width="18.291195"
           height="2.8073413"
           x="384.07648"
           y="165.46005" />
        <rect
           y="159.64487"
           x="387.3764"
           height="2.4062927"
           width="11.785563"
           id="rect9766"
           style="opacity:1;fill:#305f82;fill-opacity:0.38693471;stroke:none;stroke-width:1.85102677;stroke-miterlimit:4;stroke-dasharray:none;stroke-opacity:1" />
        <ellipse
           style="opacity:1;fill:#305f82;fill-opacity:1;stroke:none;stroke-width:1.49801636;stroke-miterlimit:4;stroke-dasharray:none;stroke-opacity:1"
           id="ellipse9768"
           cx="392.84494"
           cy="154.13045"
           rx="1.1314142"
           ry="1.2031463" />
        <path
           style="opacity:1;fill:#000000;fill-opacity:0.03517588;stroke:none;stroke-width:0.43264908px;stroke-linecap:butt;stroke-linejoin:miter;stroke-opacity:1"
           d="m 392.83362,120.67156 20.97766,29.23074 5.60611,-1e-5 -0.18084,-26.53843 -2.89347,-2.6923 z"
           id="path9770"
           inkscape:connector-curvature="0"
           sodipodi:nodetypes="cccccc" />
        <rect
           style="opacity:1;fill:#305f82;fill-opacity:1;stroke:none;stroke-width:7.49758625;stroke-miterlimit:4;stroke-dasharray:none;stroke-opacity:1"
           id="rect9772"
           width="23.599888"
           height="65.909027"
           x="426.84018"
           y="102.24498"
           ry="4.2207694" />
        <rect
           style="opacity:1;fill:#ffffff;fill-opacity:1;stroke:none;stroke-width:6.47373343;stroke-miterlimit:4;stroke-dasharray:none;stroke-opacity:1"
           id="rect9774"
           width="17.88623"
           height="66.359718"
           x="429.8739"
           y="101.9995"
           ry="0" />
        <rect
           style="opacity:1;fill:#305f82;fill-opacity:1;stroke:none;stroke-width:6.07191038;stroke-miterlimit:4;stroke-dasharray:none;stroke-opacity:1"
           id="rect9776"
           width="15.898871"
           height="6.5748916"
           x="430.86761"
           y="101.9995"
           ry="0" />
        <ellipse
           style="opacity:1;fill:#305f82;fill-opacity:1;stroke:none;stroke-width:2.13637257;stroke-miterlimit:4;stroke-dasharray:none;stroke-opacity:1"
           id="ellipse9778"
           cx="439.0379"
           cy="152.3679"
           rx="5.8516665"
           ry="6.2226653" />
        <rect
           style="opacity:1;fill:#305f82;fill-opacity:1;stroke:none;stroke-width:4.59768772;stroke-miterlimit:4;stroke-dasharray:none;stroke-opacity:1"
           id="rect9780"
           width="11.703335"
           height="15.441489"
           x="433.18613"
           y="152.9549" />
        <ellipse
           style="opacity:1;fill:#ffffff;fill-opacity:1;stroke:none;stroke-width:5.19178915;stroke-miterlimit:4;stroke-dasharray:none;stroke-opacity:1"
           id="ellipse9782"
           cx="438.92746"
           cy="152.48528"
           rx="2.2081764"
           ry="2.3481758" />
        <rect
           style="opacity:1;fill:#305f82;fill-opacity:1;stroke:none;stroke-width:6.07191038;stroke-miterlimit:4;stroke-dasharray:none;stroke-opacity:1"
           id="rect9784"
           width="15.898871"
           height="6.5748916"
           x="430.86761"
           y="109.46225"
           ry="0" />
        <rect
           style="opacity:1;fill:#305f82;fill-opacity:1;stroke:none;stroke-width:6.07191038;stroke-miterlimit:4;stroke-dasharray:none;stroke-opacity:1"
           id="rect9786"
           width="15.898871"
           height="6.5748916"
           x="430.86761"
           y="116.86581"
           ry="0" />
        <rect
           style="opacity:1;fill:#305f82;fill-opacity:1;stroke:none;stroke-width:6.07191038;stroke-miterlimit:4;stroke-dasharray:none;stroke-opacity:1"
           id="rect9788"
           width="15.898871"
           height="6.5748916"
           x="430.86761"
           y="124.26937"
           ry="0" />
        <g
           id="g9802"
           transform="matrix(1.9424786,0,0,1.9424786,-218.3715,-81.656847)"
           style="display:inline">
          <g
             id="g9800"
             transform="matrix(0.77851377,0,0,0.77851377,58.969209,28.059868)"
             style="display:inline">
            <ellipse
               style="opacity:1;fill:#305f82;fill-opacity:1;stroke:none;stroke-width:5.18624687;stroke-miterlimit:4;stroke-dasharray:none;stroke-opacity:1"
               id="ellipse9790"
               cx="250.3726"
               cy="122.36913"
               rx="22.409706"
               ry="21.929501" />
            <path
               style="opacity:1;fill:#ffffff;fill-opacity:0.98994978;stroke:none;stroke-width:0.3457498px;stroke-linecap:butt;stroke-linejoin:miter;stroke-opacity:1"
               d="m 263.67609,103.77904 c -2.23217,-0.22524 -2.75447,3.22352 -4.98523,2.98468 -1.74028,-0.18632 -1.40517,-1.30851 -3.15524,-1.33204 -2.90264,-0.0391 -4.72098,1.2747 -5.02991,2.5339 -0.35324,1.43981 1.21622,1.67557 2.67235,1.39715 1.14738,-0.21938 1.18145,-0.73339 3.04398,-0.35804 1.07703,0.21705 -4.10883,4.33445 -4.58249,5.32577 -0.5704,1.1938 0.93738,1.37302 0.43429,3.01146 -0.49197,1.60222 -2.82518,1.97805 -2.035,2.93809 0.58277,0.70803 4.23315,0.59838 4.5932,-0.14914 0.39564,-0.82144 0.5511,-3.1128 0.76513,-3.99907 0.27081,-1.12136 2.14896,-0.86967 3.42922,-0.90067 1.85621,-0.0449 4.78191,-1.53853 4.24049,0.55331 -1.36368,5.26874 -10.49092,3.53944 -12.24931,8.68992 -0.75615,2.21486 -0.75132,1.41962 1.4433,2.23268 3.53647,1.3102 1.13372,-0.16061 4.63641,1.23734 2.44786,0.97695 1.40679,12.49033 4.03162,12.25221 3.89761,-0.35356 4.24838,-12.76461 6.84243,-15.69503 2.09132,-2.36249 5.01097,-5.49386 5.01097,-5.49386 0,0 -0.41609,-6.79489 -1.97795,-9.11975 -1.78526,-2.65739 -4.49404,-4.82327 -7.12826,-6.10891 z"
               id="path9792"
               inkscape:connector-curvature="0"
               sodipodi:nodetypes="cssssssssssssssssscsc" />
            <path
               style="opacity:1;fill:#000000;fill-opacity:0.07035175;stroke:none;stroke-width:0.34956074px;stroke-linecap:butt;stroke-linejoin:miter;stroke-opacity:1"
               d="m 268.83336,108.25315 c 0,0 -3.22763,16.77004 -8.1557,21.65684 -5.70684,5.65911 -22.9136,10.63846 -22.9136,10.63846 0,0 17.37312,10.69825 30.68095,-4.93929 9.57935,-11.25632 0.38835,-27.35601 0.38835,-27.35601 z"
               id="path9794"
               inkscape:connector-curvature="0"
               sodipodi:nodetypes="cscsc" />
            <path
               style="opacity:1;fill:#ffffff;fill-opacity:0.98994978;stroke:none;stroke-width:0.14871742px;stroke-linecap:butt;stroke-linejoin:miter;stroke-opacity:1"
               d="m 248.05158,109.27649 c -0.90686,0.71494 -1.65614,3.8172 -1.00445,4.14345 0.81479,0.40787 3.73442,0.19163 3.88879,-0.71898 0.099,-0.58371 -1.35903,-2.36584 -2.56385,-3.2614 -0.0965,-0.0717 -0.22607,-0.23752 -0.32049,-0.16307 z"
               id="path9796"
               inkscape:connector-curvature="0"
               sodipodi:nodetypes="sssss" />
            <path
               style="opacity:1;fill:#ffffff;fill-opacity:1;stroke:none;stroke-width:0.26458332px;stroke-linecap:butt;stroke-linejoin:miter;stroke-opacity:1"
               d="m 241.78721,118.66654 c -0.16113,3.94461 -8.90996,3.50994 -7.82057,7.30456 1.01231,3.52614 12.0254,-0.30122 13.77179,2.92501 0.92664,1.71185 -1.64712,2.83158 -3.05574,5.76684 -1.40862,2.93525 -1.65211,7.68601 -3.46888,8.38487 -1.67435,-0.81041 -2.98333,-9.59629 -5.38019,-11.39023 -4.81477,-3.06777 -7.7169,-6.7483 -7.79606,-11.13948 -0.0327,-2.97499 0.32117,-3.16156 1.2046,-5.37159 3.96248,-2.74673 12.56966,1.0289 12.54505,3.52002 z"
               id="path9798"
               inkscape:connector-curvature="0"
               sodipodi:nodetypes="csssccccc" />
          </g>
        </g>
        <ellipse
           style="display:inline;opacity:1;fill:#000000;fill-opacity:0.09045225;stroke:none;stroke-width:0.53410339;stroke-miterlimit:4;stroke-dasharray:none;stroke-opacity:1"
           id="ellipse9804"
           cx="278.31177"
           cy="195.90919"
           rx="15.725235"
           ry="3.2448895" />
        <g
           transform="matrix(1.0868053,0,0,1.1005604,-12.732878,-18.773742)"
           id="g9824"
           style="display:inline">
          <rect
             ry="3.0511417"
             y="169.4254"
             x="89.173569"
             height="17.265829"
             width="57.509594"
             id="rect9806"
             style="opacity:1;fill:#305f82;fill-opacity:1;stroke:none;stroke-width:5.99042892;stroke-miterlimit:4;stroke-dasharray:none;stroke-opacity:1" />
          <rect
             style="opacity:1;fill:#feffff;fill-opacity:1;stroke:none;stroke-width:0.12676729;stroke-miterlimit:4;stroke-dasharray:none;stroke-opacity:1"
             id="rect9808"
             width="15.770967"
             height="7.4625068"
             x="125.91718"
             y="172.80247" />
          <circle
             style="opacity:1;fill:#fefefc;fill-opacity:1;stroke:none;stroke-width:0.23326385;stroke-miterlimit:4;stroke-dasharray:none;stroke-opacity:1"
             id="circle9810"
             cx="102.49762"
             cy="175.17491"
             r="2.1177652" />
          <circle
             cy="175.17491"
             cx="96.788857"
             id="circle9812"
             style="opacity:1;fill:#fefefc;fill-opacity:1;stroke:none;stroke-width:0.23326385;stroke-miterlimit:4;stroke-dasharray:none;stroke-opacity:1"
             r="2.1177652" />
          <rect
             style="opacity:1;fill:#305f82;fill-opacity:1;stroke:none;stroke-width:0.0900946;stroke-miterlimit:4;stroke-dasharray:none;stroke-opacity:1"
             id="rect9814"
             width="8.6034126"
             height="0.88240135"
             x="117.27148"
             y="175.08281" />
          <ellipse
             cy="176.07553"
             cx="121.5732"
             id="ellipse9816"
             style="opacity:1;fill:#305f82;fill-opacity:1;stroke:none;stroke-width:0.10308892;stroke-miterlimit:4;stroke-dasharray:none;stroke-opacity:1"
             rx="0.88240117"
             ry="0.99270135" />
          <rect
             style="opacity:1;fill:#305f82;fill-opacity:1;stroke:none;stroke-width:0.35496679;stroke-miterlimit:4;stroke-dasharray:none;stroke-opacity:1"
             id="rect9818"
             width="38.672237"
             height="37.567318"
             x="97.446213"
             y="127.1194"
             ry="2.7623053" />
          <rect
             ry="7.2632294"
             y="130.15794"
             x="101.58968"
             height="30.93779"
             width="30.661562"
             id="rect9820"
             style="opacity:1;fill:#ffffff;fill-opacity:0.2964824;stroke:none;stroke-width:0.2868301;stroke-miterlimit:4;stroke-dasharray:none;stroke-opacity:1" />
          <path
             style="opacity:1;fill:#000000;fill-opacity:0.03517588;stroke:none;stroke-width:0.41454253px;stroke-linecap:butt;stroke-linejoin:miter;stroke-opacity:1"
             d="m 106.33442,129.85 20.72713,27.15969 5.53914,-2e-5 -0.17868,-24.65811 -2.8589,-2.50156 z"
             id="path9822"
             inkscape:connector-curvature="0"
             sodipodi:nodetypes="cccccc" />
        </g>
      </g>
      <path
         style="opacity:1;fill:#000000;fill-opacity:0.03517588;stroke:none;stroke-width:0.99282569px;stroke-linecap:butt;stroke-linejoin:miter;stroke-opacity:1"
         d="m 358.75933,132.67295 48.47051,67.07753 c 6.01712,0.40905 16.83028,0.14838 16.83028,0.14838 l -0.50607,-66.76535 z"
         id="path10321"
         inkscape:connector-curvature="0"
         sodipodi:nodetypes="ccccc" />
    </g>
  </g>
</svg>
